<svg width="1083" height="249" viewBox="0 0 1083 249" fill="none" xmlns="http://www.w3.org/2000/svg">
<rect x="291" y="39" width="753" height="210" fill="#3477AC"/>
<path d="M356.909 96.9091L379.409 167.636H380.273L402.818 96.9091H424.636L392.545 190H367.182L335.045 96.9091H356.909ZM455.523 96.9091V190H435.841V96.9091H455.523ZM468.17 113.136V96.9091H544.625V113.136H516.125V190H496.67V113.136H468.17ZM557.216 190V96.9091H593.943C600.973 96.9091 606.973 98.1667 611.943 100.682C616.943 103.167 620.746 106.697 623.352 111.273C625.989 115.818 627.307 121.167 627.307 127.318C627.307 133.5 625.973 138.818 623.307 143.273C620.64 147.697 616.777 151.091 611.716 153.455C606.686 155.818 600.595 157 593.443 157H568.852V141.182H590.261C594.019 141.182 597.14 140.667 599.625 139.636C602.11 138.606 603.958 137.061 605.17 135C606.413 132.939 607.034 130.379 607.034 127.318C607.034 124.227 606.413 121.621 605.17 119.5C603.958 117.379 602.095 115.773 599.58 114.682C597.095 113.561 593.958 113 590.17 113H576.898V190H557.216ZM607.489 147.636L630.625 190H608.898L586.261 147.636H607.489ZM726.761 143.455C726.761 153.606 724.837 162.242 720.989 169.364C717.17 176.485 711.958 181.924 705.352 185.682C698.777 189.409 691.383 191.273 683.17 191.273C674.898 191.273 667.473 189.394 660.898 185.636C654.322 181.879 649.125 176.439 645.307 169.318C641.489 162.197 639.58 153.576 639.58 143.455C639.58 133.303 641.489 124.667 645.307 117.545C649.125 110.424 654.322 105 660.898 101.273C667.473 97.5151 674.898 95.6364 683.17 95.6364C691.383 95.6364 698.777 97.5151 705.352 101.273C711.958 105 717.17 110.424 720.989 117.545C724.837 124.667 726.761 133.303 726.761 143.455ZM706.807 143.455C706.807 136.879 705.822 131.333 703.852 126.818C701.913 122.303 699.17 118.879 695.625 116.545C692.08 114.212 687.928 113.045 683.17 113.045C678.413 113.045 674.261 114.212 670.716 116.545C667.17 118.879 664.413 122.303 662.443 126.818C660.504 131.333 659.534 136.879 659.534 143.455C659.534 150.03 660.504 155.576 662.443 160.091C664.413 164.606 667.17 168.03 670.716 170.364C674.261 172.697 678.413 173.864 683.17 173.864C687.928 173.864 692.08 172.697 695.625 170.364C699.17 168.03 701.913 164.606 703.852 160.091C705.822 155.576 706.807 150.03 706.807 143.455ZM791.841 123.682C791.477 120.015 789.917 117.167 787.159 115.136C784.402 113.106 780.659 112.091 775.932 112.091C772.72 112.091 770.008 112.545 767.795 113.455C765.583 114.333 763.886 115.561 762.705 117.136C761.553 118.712 760.977 120.5 760.977 122.5C760.917 124.167 761.265 125.621 762.023 126.864C762.811 128.106 763.886 129.182 765.25 130.091C766.614 130.97 768.189 131.742 769.977 132.409C771.765 133.045 773.674 133.591 775.705 134.045L784.068 136.045C788.129 136.955 791.856 138.167 795.25 139.682C798.644 141.197 801.583 143.061 804.068 145.273C806.553 147.485 808.477 150.091 809.841 153.091C811.235 156.091 811.947 159.53 811.977 163.409C811.947 169.106 810.492 174.045 807.614 178.227C804.765 182.379 800.644 185.606 795.25 187.909C789.886 190.182 783.417 191.318 775.841 191.318C768.326 191.318 761.78 190.167 756.205 187.864C750.659 185.561 746.326 182.152 743.205 177.636C740.114 173.091 738.492 167.47 738.341 160.773H757.386C757.598 163.894 758.492 166.5 760.068 168.591C761.674 170.652 763.811 172.212 766.477 173.273C769.174 174.303 772.22 174.818 775.614 174.818C778.947 174.818 781.841 174.333 784.295 173.364C786.78 172.394 788.705 171.045 790.068 169.318C791.432 167.591 792.114 165.606 792.114 163.364C792.114 161.273 791.492 159.515 790.25 158.091C789.038 156.667 787.25 155.455 784.886 154.455C782.553 153.455 779.689 152.545 776.295 151.727L766.159 149.182C758.311 147.273 752.114 144.288 747.568 140.227C743.023 136.167 740.765 130.697 740.795 123.818C740.765 118.182 742.265 113.258 745.295 109.045C748.356 104.833 752.553 101.545 757.886 99.1818C763.22 96.8182 769.28 95.6364 776.068 95.6364C782.977 95.6364 789.008 96.8182 794.159 99.1818C799.341 101.545 803.371 104.833 806.25 109.045C809.129 113.258 810.614 118.136 810.705 123.682H791.841ZM839.136 190H818.045L850.182 96.9091H875.545L907.636 190H886.545L863.227 118.182H862.5L839.136 190ZM837.818 153.409H887.636V168.773H837.818V153.409ZM918.841 190V96.9091H938.523V137.955H939.75L973.25 96.9091H996.841L962.295 138.591L997.25 190H973.705L948.205 151.727L938.523 163.545V190H918.841Z" fill="white"/>
<rect y="39" width="210" height="210" fill="#3477AC"/>
<path d="M42.9091 85.9091L65.4091 156.636H66.2727L88.8182 85.9091H110.636L78.5455 179H53.1818L21.0455 85.9091H42.9091ZM172.341 112.682C171.977 109.015 170.417 106.167 167.659 104.136C164.902 102.106 161.159 101.091 156.432 101.091C153.22 101.091 150.508 101.545 148.295 102.455C146.083 103.333 144.386 104.561 143.205 106.136C142.053 107.712 141.477 109.5 141.477 111.5C141.417 113.167 141.765 114.621 142.523 115.864C143.311 117.106 144.386 118.182 145.75 119.091C147.114 119.97 148.689 120.742 150.477 121.409C152.265 122.045 154.174 122.591 156.205 123.045L164.568 125.045C168.629 125.955 172.356 127.167 175.75 128.682C179.144 130.197 182.083 132.061 184.568 134.273C187.053 136.485 188.977 139.091 190.341 142.091C191.735 145.091 192.447 148.53 192.477 152.409C192.447 158.106 190.992 163.045 188.114 167.227C185.265 171.379 181.144 174.606 175.75 176.909C170.386 179.182 163.917 180.318 156.341 180.318C148.826 180.318 142.28 179.167 136.705 176.864C131.159 174.561 126.826 171.152 123.705 166.636C120.614 162.091 118.992 156.47 118.841 149.773H137.886C138.098 152.894 138.992 155.5 140.568 157.591C142.174 159.652 144.311 161.212 146.977 162.273C149.674 163.303 152.72 163.818 156.114 163.818C159.447 163.818 162.341 163.333 164.795 162.364C167.28 161.394 169.205 160.045 170.568 158.318C171.932 156.591 172.614 154.606 172.614 152.364C172.614 150.273 171.992 148.515 170.75 147.091C169.538 145.667 167.75 144.455 165.386 143.455C163.053 142.455 160.189 141.545 156.795 140.727L146.659 138.182C138.811 136.273 132.614 133.288 128.068 129.227C123.523 125.167 121.265 119.697 121.295 112.818C121.265 107.182 122.765 102.258 125.795 98.0455C128.856 93.8333 133.053 90.5455 138.386 88.1818C143.72 85.8182 149.78 84.6364 156.568 84.6364C163.477 84.6364 169.508 85.8182 174.659 88.1818C179.841 90.5455 183.871 93.8333 186.75 98.0455C189.629 102.258 191.114 107.136 191.205 112.682H172.341Z" fill="white"/>
<line x1="28.5" y1="204.5" x2="187.5" y2="204.5" stroke="white" stroke-width="15" stroke-linecap="round"/>
<circle cx="1063.5" cy="19.5" r="17" stroke="#3477AC" stroke-width="5"/>
<path d="M1056.64 29V10.0909H1064.1C1065.53 10.0909 1066.75 10.3464 1067.76 10.8572C1068.78 11.362 1069.55 12.0791 1070.08 13.0085C1070.61 13.9318 1070.88 15.0182 1070.88 16.2678C1070.88 17.5234 1070.61 18.6037 1070.07 19.5085C1069.53 20.4072 1068.74 21.0966 1067.71 21.5767C1066.69 22.0568 1065.45 22.2969 1064 22.2969H1059.01V19.0838H1063.36C1064.12 19.0838 1064.75 18.9792 1065.26 18.7699C1065.76 18.5606 1066.14 18.2467 1066.38 17.8281C1066.64 17.4096 1066.76 16.8894 1066.76 16.2678C1066.76 15.6399 1066.64 15.1106 1066.38 14.6797C1066.14 14.2488 1065.76 13.9226 1065.25 13.701C1064.74 13.4732 1064.11 13.3594 1063.34 13.3594H1060.64V29H1056.64ZM1066.86 20.3949L1071.55 29H1067.14L1062.54 20.3949H1066.86Z" fill="#3477AC"/>
<line x1="228.5" y1="39" x2="228.5" y2="249" stroke="#3477AC" stroke-width="13"/>
<line x1="274.5" y1="39" x2="274.5" y2="249" stroke="#3477AC" stroke-width="13"/>
<line x1="252.5" y1="39" x2="252.5" y2="249" stroke="#3477AC" stroke-width="13"/>
</svg>
